# xmcd
#
# Track frame offsets: 
#        150
#        17090
#        26851
#        37235
#        47238
#        64680
#        79579
#        93747
#        108149
#        119818
#        134861
#        143033
#        158660
#
# Disc length: 2179 seconds
#
# Revision: 0
# Processed by: cddbd v1.5.2PL0 Copyright (c) Steve Scherf et al.
# Submitted via: ExactAudioCopy v0.99pb4
#
DISCID=bc08810d
DTITLE=Doghouse Sam - Budda Blue
DYEAR=2012
DGENRE=Blues
TTITLE0=Ain't Got Time
TTITLE1=Love To Spend
TTITLE2=Why
TTITLE3=Let's get in on
TTITLE4=Hurt
TTITLE5=It Ain't Easy
TTITLE6=Roll Up My Sleeves
TTITLE7=Crossroads
TTITLE8=One Less Thing
TTITLE9=Nobody knows
TTITLE10=Lots To Do and little Time
TTITLE11=Back In The ring
TTITLE12=Buttoned Up
EXTD=
EXTT0=
EXTT1=
EXTT2=
EXTT3=
EXTT4=
EXTT5=
EXTT6=
EXTT7=
EXTT8=
EXTT9=
EXTT10=
EXTT11=
EXTT12=
PLAYORDER=
